<?xml version="1.0" encoding="utf-8"?>
<!-- Generator: Adobe Illustrator 16.0.3, SVG Export Plug-In . SVG Version: 6.00 Build 0)  -->
<!DOCTYPE svg PUBLIC "-//W3C//DTD SVG 1.1//EN" "http://www.w3.org/Graphics/SVG/1.1/DTD/svg11.dtd">
<svg version="1.1" id="レイヤー_1" xmlns="http://www.w3.org/2000/svg" xmlns:xlink="http://www.w3.org/1999/xlink" x="0px"
	 y="0px" width="77.48px" height="40.841px" viewBox="0 0 77.48 40.841" enable-background="new 0 0 77.48 40.841"
	 xml:space="preserve">
<g>
	<g>
		<g>
			<path d="M6.645,10.656H6.64c-0.182,0.016-0.336,0.131-0.392,0.294L0.012,30.899C0.009,30.919,0,30.956,0,30.956
				c0,0.163,0.134,0.295,0.307,0.305h6.791c0.184-0.01,0.332-0.119,0.395-0.269c0.001-0.011,6.247-19.97,6.247-19.97
				c0-0.015,0.007-0.063,0.007-0.063c0-0.158-0.125-0.288-0.295-0.303H6.652H6.645z"/>
			<path d="M9.903,0.32c-0.18,0-0.359,0.129-0.418,0.294c0,0.006-1.771,5.659-1.771,5.659C7.713,6.285,7.706,6.34,7.706,6.34
				c0,0.161,0.135,0.295,0.31,0.31h6.776c0.201-0.014,0.369-0.144,0.416-0.311l1.762-5.647c0.004-0.015,0.012-0.063,0.012-0.063
				c0-0.164-0.15-0.309-0.317-0.309H9.903z"/>
		</g>
		<g>
			<path d="M44.557,10.656H44.55c-0.187,0.016-0.34,0.131-0.391,0.294l-6.243,19.949c-0.002,0.02-0.009,0.057-0.009,0.057
				c0,0.163,0.132,0.295,0.306,0.305h6.792c0.181-0.01,0.335-0.119,0.394-0.269c0.004-0.011,6.243-19.97,6.243-19.97
				c0.009-0.015,0.009-0.063,0.009-0.063c0-0.158-0.123-0.288-0.292-0.303H44.557L44.557,10.656z"/>
			<path d="M47.807,0.32c-0.177,0-0.357,0.129-0.409,0.294c0,0.006-1.773,5.659-1.773,5.659c-0.005,0.012-0.011,0.067-0.011,0.067
				c0,0.161,0.139,0.295,0.31,0.31h6.781c0.2-0.014,0.36-0.144,0.409-0.311c-0.003,0,1.766-5.647,1.766-5.647
				c0.006-0.015,0.009-0.063,0.009-0.063c0-0.164-0.148-0.309-0.313-0.309H47.807z"/>
		</g>
		<path d="M25.022,1.105L25.022,1.105c-2.257,1.008-3.484,2.522-4.383,5.409c-0.878,2.824-0.972,3.625-0.982,4.777
			c-0.021,2.673,1.52,3.771,4.039,5.559c2.519,1.79,3.585,2.46,4.286,3.124c0.694,0.655,0.887,1.346,0.453,2.742
			c-0.127,0.43-0.292,0.953-0.486,1.393c-0.765,1.734-1.776,2.318-3.664,2.318c-1.537,0-2.626-0.744-2.646-1.861
			c-0.009-0.557,0.066-0.787,0.335-1.652l0.651-2.104c0.003-0.016,0.008-0.065,0.008-0.065c0-0.157-0.132-0.284-0.295-0.301h-6.233
			c-0.183,0.017-0.338,0.119-0.391,0.275c-0.004,0.01-0.275,0.858-0.622,1.955c-0.345,1.093-0.652,2.244-0.652,3.517
			c0,2.025,1.11,3.736,3.152,4.569c1.382,0.563,3.304,0.834,5.977,0.842c5.623,0.017,8.957-1.637,10.469-5.049
			c0.854-1.916,1.854-4.475,1.822-6.755c-0.047-2.724-2.614-4.361-3.929-5.307c-1.225-0.873-1.603-1.133-2.302-1.633
			c-1.266-0.911-2.911-1.85-2.905-3.06c0.007-0.676,0.385-1.856,1.028-3.225c0.498-1.044,1.844-1.416,2.797-1.416
			c0.974,0,1.715,0.246,2.056,0.706c0.251,0.348,0.298,0.823,0.137,1.34l-0.985,3.101c-0.001,0.015-0.004,0.062-0.004,0.062
			c0,0.154,0.117,0.28,0.277,0.306h6.272c0.179-0.021,0.318-0.123,0.377-0.271c0-0.005,0.919-2.909,0.919-2.909
			c0.124-0.399,0.336-1.174,0.354-1.874c0.043-1.392-0.377-2.558-1.258-3.46C37.304,0.728,34.864,0,31.35,0
			C28.931,0,26.54,0.422,25.022,1.105z"/>
		<path d="M56.779,0.33h-0.01c-0.188,0.012-0.34,0.17-0.355,0.356v30.206c0.016,0.192,0.168,0.351,0.355,0.362
			c0.01,0,10.841,0,10.841,0c5.55,0,8.704-2.521,9.378-7.489c0.35-2.527,0.492-4.913,0.492-7.969c0-3.063-0.143-5.447-0.492-7.978
			C76.314,2.852,73.16,0.334,67.61,0.33H56.779z M66.624,5.619c1.907,0,3.179,1.175,3.398,3.146c0.14,1.28,0.299,3.172,0.299,6.548
			c0,0.155,0,0.315,0,0.476c0,0.164,0,0.326,0,0.477c0,3.382-0.159,5.275-0.299,6.555c-0.22,1.971-1.491,3.147-3.398,3.147
			c0,0-3.043,0-3.233,0c0-0.199,0-20.15,0-20.348C63.581,5.619,66.624,5.619,66.624,5.619z"/>
	</g>
	<g>
		<path d="M1.017,40.744H0l1.479-4.727h1.014L1.017,40.744z"/>
		<path d="M2.977,36.018h3.829L6.56,36.804H5.155l-1.233,3.94H2.907l1.232-3.94H2.732L2.977,36.018z"/>
		<path d="M10.737,37.368c0.107-0.48-0.075-0.713-0.564-0.713c-0.374,0-0.814,0.191-0.941,0.604
			c-0.159,0.514,0.28,0.568,0.652,0.669c0.663,0.184,1.663,0.386,1.366,1.335c-0.367,1.174-1.514,1.578-2.528,1.578
			c-1.082,0-1.716-0.417-1.311-1.61h1.031c-0.201,0.521-0.011,0.882,0.521,0.882c0.404,0,0.981-0.13,1.139-0.633
			c0.171-0.557-0.489-0.593-0.862-0.701c-0.608-0.162-1.418-0.465-1.157-1.301c0.339-1.082,1.482-1.561,2.449-1.561
			c0.917,0,1.476,0.5,1.179,1.451H10.737z"/>
		<path d="M12.85,40.841c-1.072,0-1.492-0.709-1.17-1.742s1.186-1.741,2.259-1.741c1.07,0,1.493,0.708,1.169,1.741
			C14.785,40.132,13.923,40.841,12.85,40.841z M13.054,40.187c0.603,0,0.877-0.563,1.042-1.088c0.163-0.521,0.24-1.085-0.361-1.085
			s-0.875,0.563-1.041,1.085C12.529,39.624,12.454,40.187,13.054,40.187z"/>
		<path d="M17.46,36.018l-1.478,4.727h-0.983l1.479-4.727H17.46z"/>
		<path d="M18.832,40.335c-0.304,0.305-0.675,0.506-1.173,0.506c-0.327,0-0.883-0.248-0.852-0.724
			c0.013-0.206,0.062-0.413,0.098-0.526l0.668-2.134h0.982l-0.615,1.972c-0.106,0.353-0.133,0.758,0.35,0.758
			c0.308,0,0.664-0.281,0.825-0.758l0.617-1.972h0.978l-0.84,2.696c-0.056,0.197-0.104,0.393-0.145,0.591h-0.979L18.832,40.335z"/>
		<path d="M21.702,37.457l0.201-0.646l1.094-0.357l-0.316,1.003h0.741l-0.206,0.654h-0.737l-0.478,1.524
			c-0.135,0.434-0.108,0.551,0.232,0.551c0.104,0,0.214-0.012,0.321-0.018l-0.18,0.575c-0.13,0.05-0.663,0.097-0.803,0.097
			c-0.766,0-0.803-0.398-0.581-1.111l0.505-1.618h-0.663l0.205-0.654H21.702z"/>
		<path d="M24.782,37.457l-1.025,3.287h-0.982l1.029-3.287H24.782z M25.266,36.018l-0.264,0.845h-1.047l0.264-0.845H25.266z"/>
		<path d="M25.852,40.841c-1.074,0-1.493-0.709-1.17-1.742c0.324-1.033,1.186-1.741,2.259-1.741c1.071,0,1.493,0.708,1.171,1.741
			C27.789,40.132,26.925,40.841,25.852,40.841z M26.058,40.187c0.603,0,0.874-0.563,1.04-1.088c0.16-0.521,0.241-1.085-0.362-1.085
			c-0.602,0-0.875,0.563-1.04,1.085C25.531,39.624,25.454,40.187,26.058,40.187z"/>
		<path d="M29.898,37.836l0.005,0.022c0.302-0.305,0.669-0.501,1.169-0.501c0.326,0,0.883,0.245,0.85,0.718
			c-0.011,0.207-0.06,0.416-0.096,0.527l-0.67,2.142h-0.98l0.618-1.979c0.103-0.352,0.13-0.751-0.355-0.751
			c-0.309,0-0.662,0.274-0.824,0.751l-0.618,1.979h-0.98l1.027-3.287h0.973L29.898,37.836z"/>
		<path d="M34.821,40.744h-1.012l1.476-4.727h1.016L34.821,40.744z"/>
		<path d="M37.272,37.836l0.009,0.022c0.297-0.305,0.664-0.501,1.164-0.501c0.327,0,0.885,0.245,0.854,0.718
			c-0.01,0.207-0.063,0.416-0.098,0.527l-0.668,2.142H37.55l0.618-1.979c0.104-0.352,0.132-0.751-0.354-0.751
			c-0.306,0-0.663,0.274-0.823,0.751l-0.621,1.979h-0.979l1.026-3.287h0.978L37.272,37.836z"/>
		<path d="M40.979,37.836l0.005,0.022c0.297-0.305,0.666-0.501,1.164-0.501c0.326,0,0.885,0.245,0.854,0.718
			c-0.011,0.207-0.062,0.416-0.097,0.527l-0.671,2.142h-0.979l0.617-1.979c0.103-0.352,0.13-0.751-0.354-0.751
			c-0.308,0-0.66,0.274-0.827,0.751l-0.613,1.979h-0.981l1.028-3.287h0.974L40.979,37.836z"/>
		<path d="M44.339,40.841c-1.071,0-1.495-0.709-1.169-1.742c0.319-1.033,1.186-1.741,2.257-1.741c1.072,0,1.495,0.708,1.171,1.741
			C46.275,40.132,45.414,40.841,44.339,40.841z M44.545,40.187c0.603,0,0.873-0.563,1.039-1.088c0.164-0.521,0.24-1.085-0.361-1.085
			c-0.601,0-0.875,0.563-1.039,1.085C44.021,39.624,43.94,40.187,44.545,40.187z"/>
		<path d="M47.021,37.457h1.042l0.035,2.226h0.013l1.448-2.226h0.935l-2.218,3.287h-1.073L47.021,37.457z"/>
		<path d="M50.374,38.386c0.135-0.413,0.394-0.667,0.701-0.816c0.316-0.158,0.68-0.212,1.032-0.212c0.662,0,1.326,0.245,1.017,1.233
			l-0.56,1.791c-0.042,0.164-0.049,0.264-0.066,0.362h-0.884c0.027-0.151,0.063-0.302,0.104-0.441h-0.015
			c-0.339,0.383-0.73,0.538-1.173,0.538c-0.617,0-0.965-0.352-0.764-0.99c0.071-0.232,0.349-0.787,1.024-1.045
			c0.442-0.172,0.951-0.189,1.341-0.178l0.098-0.31c0.039-0.134,0.02-0.406-0.33-0.406c-0.336,0-0.549,0.32-0.582,0.474H50.374z
			 M50.75,39.716c-0.086,0.271,0.057,0.471,0.332,0.471c0.542,0,0.75-0.602,0.871-0.99C51.614,39.192,50.914,39.183,50.75,39.716z"
			/>
		<path d="M54.289,37.457l0.203-0.646l1.092-0.357l-0.312,1.003h0.737l-0.204,0.654h-0.739l-0.476,1.524
			c-0.135,0.434-0.108,0.551,0.232,0.551c0.106,0,0.214-0.012,0.323-0.018l-0.183,0.575c-0.125,0.05-0.667,0.097-0.804,0.097
			c-0.764,0-0.804-0.398-0.583-1.111l0.51-1.618h-0.662l0.202-0.654H54.289z"/>
		<path d="M56.785,40.841c-1.072,0-1.495-0.709-1.17-1.742c0.324-1.033,1.184-1.741,2.258-1.741c1.076,0,1.496,0.708,1.169,1.741
			C58.724,40.132,57.859,40.841,56.785,40.841z M56.991,40.187c0.601,0,0.874-0.563,1.04-1.088c0.16-0.521,0.241-1.085-0.36-1.085
			c-0.604,0-0.876,0.563-1.04,1.085C56.467,39.624,56.388,40.187,56.991,40.187z"/>
		<path d="M60.786,37.457l-0.165,0.595h0.012c0.373-0.514,0.832-0.648,1.318-0.638l-0.271,0.874h-0.426
			c-0.165,0.012-0.412,0.104-0.553,0.242c-0.163,0.182-0.24,0.367-0.313,0.58l-0.509,1.634h-0.975l0.814-2.633
			c0.043-0.139,0.111-0.413,0.173-0.654H60.786z"/>
	</g>
</g>
</svg>
